<mxfile host="Electron" agent="Mozilla/5.0 (Windows NT 10.0; Win64; x64) AppleWebKit/537.36 (KHTML, like Gecko) draw.io/28.1.2 Chrome/138.0.7204.243 Electron/37.4.0 Safari/537.36" version="28.1.2">
  <diagram name="Página-1" id="1e-amLwltuURbLbIifNR">
    <mxGraphModel dx="983" dy="580" grid="1" gridSize="10" guides="1" tooltips="1" connect="1" arrows="1" fold="1" page="1" pageScale="1" pageWidth="827" pageHeight="1169" math="0" shadow="0">
      <root>
        <mxCell id="0" />
        <mxCell id="1" parent="0" />
        <mxCell id="XasOW13l8tRv3UL717mE-1" value="Páginas" style="text;html=1;align=center;verticalAlign=middle;whiteSpace=wrap;rounded=0;fontSize=16;fontStyle=1" parent="1" vertex="1">
          <mxGeometry x="384" y="10" width="60" height="30" as="geometry" />
        </mxCell>
        <mxCell id="XasOW13l8tRv3UL717mE-2" value="Login" style="shape=process;whiteSpace=wrap;html=1;backgroundOutline=1;fillColor=#f5f5f5;fontColor=#333333;strokeColor=#666666;" parent="1" vertex="1">
          <mxGeometry x="28" y="71" width="100" height="40" as="geometry" />
        </mxCell>
        <mxCell id="XasOW13l8tRv3UL717mE-3" value="Controle" style="shape=process;whiteSpace=wrap;html=1;backgroundOutline=1;fillColor=#ffe6cc;strokeColor=#d79b00;" parent="1" vertex="1">
          <mxGeometry x="162" y="71" width="100" height="40" as="geometry" />
        </mxCell>
        <mxCell id="XasOW13l8tRv3UL717mE-4" value="Análise" style="shape=process;whiteSpace=wrap;html=1;backgroundOutline=1;fillColor=#bac8d3;strokeColor=#23445d;" parent="1" vertex="1">
          <mxGeometry x="688" y="71" width="100" height="40" as="geometry" />
        </mxCell>
        <mxCell id="XasOW13l8tRv3UL717mE-5" value="Armazém" style="shape=process;whiteSpace=wrap;html=1;backgroundOutline=1;fillColor=#e1d5e7;strokeColor=#9673a6;" parent="1" vertex="1">
          <mxGeometry x="558" y="71" width="100" height="40" as="geometry" />
        </mxCell>
        <mxCell id="XasOW13l8tRv3UL717mE-7" value="Status" style="shape=process;whiteSpace=wrap;html=1;backgroundOutline=1;fillColor=#d5e8d4;strokeColor=#82b366;" parent="1" vertex="1">
          <mxGeometry x="427" y="71" width="100" height="40" as="geometry" />
        </mxCell>
        <mxCell id="XasOW13l8tRv3UL717mE-8" value="Rotina" style="shape=process;whiteSpace=wrap;html=1;backgroundOutline=1;fillColor=#dae8fc;strokeColor=#6c8ebf;" parent="1" vertex="1">
          <mxGeometry x="298" y="71" width="100" height="40" as="geometry" />
        </mxCell>
        <mxCell id="XasOW13l8tRv3UL717mE-9" value="&lt;div style=&quot;&quot;&gt;&lt;span style=&quot;background-color: transparent; color: light-dark(rgb(0, 0, 0), rgb(255, 255, 255));&quot;&gt;Input Nome&lt;/span&gt;&lt;/div&gt;&lt;div style=&quot;&quot;&gt;&lt;span style=&quot;background-color: transparent; color: light-dark(rgb(0, 0, 0), rgb(255, 255, 255));&quot;&gt;Input Senha&lt;/span&gt;&lt;/div&gt;&lt;div style=&quot;&quot;&gt;&lt;span style=&quot;background-color: transparent; color: light-dark(rgb(0, 0, 0), rgb(255, 255, 255));&quot;&gt;&lt;br&gt;&lt;/span&gt;&lt;/div&gt;&lt;div style=&quot;&quot;&gt;&lt;span style=&quot;background-color: transparent; color: light-dark(rgb(0, 0, 0), rgb(255, 255, 255));&quot;&gt;Botão Login&lt;/span&gt;&lt;/div&gt;" style="text;html=1;align=center;verticalAlign=middle;resizable=0;points=[];autosize=1;strokeColor=none;fillColor=none;" parent="1" vertex="1">
          <mxGeometry x="33" y="111" width="90" height="70" as="geometry" />
        </mxCell>
        <mxCell id="XasOW13l8tRv3UL717mE-10" value="&lt;font style=&quot;font-size: 11px;&quot;&gt;Select box Dispositivo&lt;/font&gt;&lt;div&gt;&lt;font style=&quot;font-size: 11px;&quot;&gt;Input text Pesquisa&lt;/font&gt;&lt;/div&gt;&lt;div&gt;&lt;font style=&quot;font-size: 11px;&quot;&gt;Select box&#39;s Itens&lt;br&gt;Select box Iten Selecionado 01&lt;br&gt;Select box Iten Selecionado 02&lt;br&gt;Select box Iten Selecionado 03&lt;br&gt;Select box Iten Selecionado 04&lt;br&gt;&lt;br&gt;Botão Cancelar&lt;br&gt;Botão Criar Rotina&lt;br&gt;Botão Enviar&lt;/font&gt;&lt;/div&gt;" style="text;html=1;align=center;verticalAlign=middle;resizable=0;points=[];autosize=1;strokeColor=none;fillColor=none;" parent="1" vertex="1">
          <mxGeometry x="122" y="111" width="180" height="170" as="geometry" />
        </mxCell>
        <mxCell id="XasOW13l8tRv3UL717mE-11" value="Select box Tempo" style="text;html=1;align=center;verticalAlign=middle;resizable=0;points=[];autosize=1;strokeColor=none;fillColor=none;" parent="1" vertex="1">
          <mxGeometry x="678" y="111" width="120" height="30" as="geometry" />
        </mxCell>
        <mxCell id="XasOW13l8tRv3UL717mE-12" value="Select box Dispositivo&lt;br&gt;Select box Rota&lt;br&gt;&lt;br&gt;Button Editar&lt;br&gt;Button Deletar&lt;br&gt;Button Criar" style="text;html=1;align=center;verticalAlign=middle;resizable=0;points=[];autosize=1;strokeColor=none;fillColor=none;" parent="1" vertex="1">
          <mxGeometry x="278" y="111" width="140" height="100" as="geometry" />
        </mxCell>
        <mxCell id="XasOW13l8tRv3UL717mE-13" value="Select box Dispositivo&lt;br&gt;&lt;br&gt;Button Cancelar Rota&lt;br&gt;Button Excluir Item" style="text;html=1;align=center;verticalAlign=middle;resizable=0;points=[];autosize=1;strokeColor=none;fillColor=none;" parent="1" vertex="1">
          <mxGeometry x="407" y="111" width="140" height="70" as="geometry" />
        </mxCell>
        <mxCell id="XasOW13l8tRv3UL717mE-14" value="Select box Corredor&lt;br&gt;Select box Sub-Corredor&lt;br&gt;Select box Item Pos. 01&lt;div&gt;Select box Item Pos. 02&lt;br&gt;Select box Item Pos. 03&lt;br&gt;Select box Item Pos. 04&lt;br&gt;&lt;br&gt;Button Editar&lt;/div&gt;" style="text;html=1;align=center;verticalAlign=middle;resizable=0;points=[];autosize=1;strokeColor=none;fillColor=none;" parent="1" vertex="1">
          <mxGeometry x="528" y="111" width="160" height="130" as="geometry" />
        </mxCell>
        <mxCell id="VPMYpZIrst-ycz6N8Fdi-1" value="Site + APP" style="text;html=1;align=center;verticalAlign=middle;resizable=0;points=[];autosize=1;strokeColor=none;fillColor=none;" vertex="1" parent="1">
          <mxGeometry x="38" y="48" width="80" height="30" as="geometry" />
        </mxCell>
        <mxCell id="VPMYpZIrst-ycz6N8Fdi-2" value="Site + APP" style="text;html=1;align=center;verticalAlign=middle;resizable=0;points=[];autosize=1;strokeColor=none;fillColor=none;" vertex="1" parent="1">
          <mxGeometry x="172" y="48" width="80" height="30" as="geometry" />
        </mxCell>
        <mxCell id="VPMYpZIrst-ycz6N8Fdi-3" value="Site + APP" style="text;html=1;align=center;verticalAlign=middle;resizable=0;points=[];autosize=1;strokeColor=none;fillColor=none;" vertex="1" parent="1">
          <mxGeometry x="308" y="48" width="80" height="30" as="geometry" />
        </mxCell>
        <mxCell id="VPMYpZIrst-ycz6N8Fdi-4" value="Site + APP" style="text;html=1;align=center;verticalAlign=middle;resizable=0;points=[];autosize=1;strokeColor=none;fillColor=none;" vertex="1" parent="1">
          <mxGeometry x="437" y="48" width="80" height="30" as="geometry" />
        </mxCell>
        <mxCell id="VPMYpZIrst-ycz6N8Fdi-5" value="Site Gerente" style="text;html=1;align=center;verticalAlign=middle;resizable=0;points=[];autosize=1;strokeColor=none;fillColor=none;" vertex="1" parent="1">
          <mxGeometry x="563" y="48" width="90" height="30" as="geometry" />
        </mxCell>
        <mxCell id="VPMYpZIrst-ycz6N8Fdi-6" value="Site Gerente" style="text;html=1;align=center;verticalAlign=middle;resizable=0;points=[];autosize=1;strokeColor=none;fillColor=none;" vertex="1" parent="1">
          <mxGeometry x="693" y="48" width="90" height="30" as="geometry" />
        </mxCell>
      </root>
    </mxGraphModel>
  </diagram>
</mxfile>
